<svg width="75" height="35" viewBox="0 0 75 35" fill="none" xmlns="http://www.w3.org/2000/svg">
<g clip-path="url(#clip0_1_86)">
<path fill-rule="evenodd" clip-rule="evenodd" d="M20.6549 19.3133L31.3944 13.9592L4.77337 0.687582C-1.14663 3.63893 -1.14663 8.43488 4.77337 11.3862L20.6549 19.3133ZM46.4031 15.8795C52.1903 17.2322 60.3682 16.2768 66.4021 13.2687C73.6693 9.64569 75.0544 4.47137 69.4949 1.69974C63.9165 -1.07188 53.5185 -0.381337 46.2703 3.24164C40.2365 6.24974 38.339 10.3268 41.0334 13.2119C32.5898 17.4119 3.97645 31.6768 3.97645 31.6768L9.3462 34.3538L35.4549 21.3376L61.5636 34.3538L66.9334 31.6768L40.8247 18.6606L46.4031 15.8795Z" fill="#FD0B7D"/>
</g>
<defs>
<clipPath id="clip0_1_86">
<rect width="74" height="35" fill="white" transform="translate(0.333374)"/>
</clipPath>
</defs>
</svg>
