<svg width="66" height="60" viewBox="0 0 66 60" fill="none" xmlns="http://www.w3.org/2000/svg">
<g clip-path="url(#clip0_1_151)" filter="url(#filter0_d_1_151)">
<path fill-rule="evenodd" clip-rule="evenodd" d="M62.0755 10.0044C53.4762 14.2232 49.1765 19.1801 49.1765 24.8755C52.8418 25.2974 55.8727 26.7915 58.2693 29.3579C60.6658 31.9243 61.864 34.895 61.864 38.27C61.864 41.856 60.701 44.8794 58.375 47.3403C56.0489 49.8013 53.1238 51.0317 49.5995 51.0317C45.6522 51.0317 42.2337 49.4321 39.3437 46.2329C36.4538 43.0337 35.0088 39.1489 35.0088 34.5786C35.0088 20.8676 42.6917 10.1451 58.0578 2.41064L62.0755 10.0044ZM31.112 10.0044C22.4421 14.2232 18.1073 19.1801 18.1073 24.8755C21.8431 25.2974 24.9092 26.7915 27.3057 29.3579C29.7022 31.9243 30.9005 34.895 30.9005 38.27C30.9005 41.856 29.7199 44.8794 27.3586 47.3403C24.9973 49.8013 22.0545 51.0317 18.5302 51.0317C14.5829 51.0317 11.182 49.4321 8.32732 46.2329C5.47262 43.0337 4.04529 39.1489 4.04529 34.5786C4.04529 20.8676 11.693 10.1451 26.9885 2.41064L31.112 10.0044Z" fill="#D6D6D6"/>
</g>
<defs>
<filter id="filter0_d_1_151" x="0" y="0" width="66" height="62" filterUnits="userSpaceOnUse" color-interpolation-filters="sRGB">
<feFlood flood-opacity="0" result="BackgroundImageFix"/>
<feColorMatrix in="SourceAlpha" type="matrix" values="0 0 0 0 0 0 0 0 0 0 0 0 0 0 0 0 0 0 127 0" result="hardAlpha"/>
<feOffset dy="4"/>
<feGaussianBlur stdDeviation="2"/>
<feComposite in2="hardAlpha" operator="out"/>
<feColorMatrix type="matrix" values="0 0 0 0 0 0 0 0 0 0 0 0 0 0 0 0 0 0 0.25 0"/>
<feBlend mode="normal" in2="BackgroundImageFix" result="effect1_dropShadow_1_151"/>
<feBlend mode="normal" in="SourceGraphic" in2="effect1_dropShadow_1_151" result="shape"/>
</filter>
<clipPath id="clip0_1_151">
<rect width="58" height="54" fill="white" transform="translate(4)"/>
</clipPath>
</defs>
</svg>
