<svg width="1440" height="26" viewBox="0 0 1440 26" fill="none" xmlns="http://www.w3.org/2000/svg">
<g opacity="0.25">
<path d="M0 6.70605C34.2864 6.70605 34.2864 19.3475 68.5727 19.3475C102.859 19.3475 102.859 6.70605 137.132 6.70605C171.405 6.70605 171.418 19.3475 205.705 19.3475C239.991 19.3475 239.991 6.70605 274.277 6.70605C308.564 6.70605 308.564 19.3475 342.837 19.3475C377.11 19.3475 377.123 6.70605 411.409 6.70605C445.696 6.70605 445.696 19.3475 479.982 19.3475C514.268 19.3475 514.268 6.70605 548.555 6.70605C582.841 6.70605 582.828 19.3475 617.114 19.3475C651.4 19.3475 651.4 6.70605 685.687 6.70605C719.973 6.70605 719.973 19.3475 754.246 19.3475C788.519 19.3475 788.532 6.70605 822.819 6.70605C857.105 6.70605 857.105 19.3475 891.405 19.3475C925.705 19.3475 925.678 6.70605 959.964 6.70605C994.251 6.70605 994.264 19.3475 1028.55 19.3475C1062.84 19.3475 1062.84 6.70605 1097.11 6.70605C1131.38 6.70605 1131.4 19.3475 1165.68 19.3475C1199.97 19.3475 1199.97 6.70605 1234.27 6.70605C1268.57 6.70605 1268.55 19.3475 1302.84 19.3475C1337.13 19.3475 1337.13 6.70605 1371.41 6.70605C1405.7 6.70605 1405.71 19.3475 1440 19.3475" fill="black"/>
<path d="M0 6.70605C34.2864 6.70605 34.2864 19.3475 68.5727 19.3475C102.859 19.3475 102.859 6.70605 137.132 6.70605C171.405 6.70605 171.418 19.3475 205.705 19.3475C239.991 19.3475 239.991 6.70605 274.277 6.70605C308.564 6.70605 308.564 19.3475 342.837 19.3475C377.11 19.3475 377.123 6.70605 411.409 6.70605C445.696 6.70605 445.696 19.3475 479.982 19.3475C514.268 19.3475 514.268 6.70605 548.555 6.70605C582.841 6.70605 582.828 19.3475 617.114 19.3475C651.4 19.3475 651.4 6.70605 685.687 6.70605C719.973 6.70605 719.973 19.3475 754.246 19.3475C788.519 19.3475 788.532 6.70605 822.819 6.70605C857.105 6.70605 857.105 19.3475 891.405 19.3475C925.705 19.3475 925.678 6.70605 959.964 6.70605C994.251 6.70605 994.264 19.3475 1028.55 19.3475C1062.84 19.3475 1062.84 6.70605 1097.11 6.70605C1131.38 6.70605 1131.4 19.3475 1165.68 19.3475C1199.97 19.3475 1199.97 6.70605 1234.27 6.70605C1268.57 6.70605 1268.55 19.3475 1302.84 19.3475C1337.13 19.3475 1337.13 6.70605 1371.41 6.70605C1405.7 6.70605 1405.71 19.3475 1440 19.3475" stroke="black" stroke-width="13" stroke-miterlimit="10"/>
</g>
</svg>
